<svg xmlns="http://www.w3.org/2000/svg" xmlns:xlink="http://www.w3.org/1999/xlink" width="18" height="18" viewBox="0 0 18 18">
  <defs>
    <clipPath id="clip-path">
      <rect width="18" height="18" fill="none"/>
    </clipPath>
  </defs>
  <g id="符号_66_1" data-name="符号 66 – 1" clip-path="url(#clip-path)">
    <g id="路径_83" data-name="路径 83" fill="none">
      <path d="M9,0A9,9,0,1,1,0,9,9,9,0,0,1,9,0Z" stroke="none"/>
      <path d="M 9 1 C 4.588789939880371 1 1 4.588789939880371 1 9 C 1 13.41121006011963 4.588789939880371 17 9 17 C 13.41121006011963 17 17 13.41121006011963 17 9 C 17 4.588789939880371 13.41121006011963 1 9 1 M 9 0 C 13.97056007385254 0 18 4.029439926147461 18 9 C 18 13.97056007385254 13.97056007385254 18 9 18 C 4.029439926147461 18 0 13.97056007385254 0 9 C 0 4.029439926147461 4.029439926147461 0 9 0 Z" stroke="none" fill="#a0a0a0"/>
    </g>
    <circle id="椭圆_10" data-name="椭圆 10" cx="1.185" cy="1.185" r="1.185" transform="translate(8.187 2.793)" fill="#a0a0a0"/>
    <rect id="矩形_71" data-name="矩形 71" width="2.321" height="8.242" rx="1.161" transform="translate(8.189 6.91)" fill="#a0a0a0"/>
  </g>
</svg>
