<svg xmlns="http://www.w3.org/2000/svg" xmlns:xlink="http://www.w3.org/1999/xlink" width="26" height="22" viewBox="0 0 26 22">
  <defs>
    <clipPath id="clip-path">
      <rect width="26" height="22" fill="none"/>
    </clipPath>
  </defs>
  <g id="符号_67_1" data-name="符号 67 – 1" clip-path="url(#clip-path)">
    <g id="联合_2" data-name="联合 2" transform="translate(0 -1)" fill="rgba(82,188,255,0.2)">
      <path d="M 21.99960136413574 22.50040054321289 L 3.999600648880005 22.50040054321289 C 2.069910526275635 22.50040054321289 0.500000536441803 20.93008041381836 0.500000536441803 18.99990081787109 L 0.500000536441803 8.000101089477539 C 0.500000536441803 6.069920539855957 2.069910526275635 4.499600887298584 3.999600648880005 4.499600887298584 L 7.000200748443604 4.499600887298584 L 7.500200748443604 4.499600887298584 L 7.500200748443604 3.999600648880005 C 7.500200748443604 2.621260643005371 8.621560096740723 1.499900698661804 9.999900817871094 1.499900698661804 L 17.00010108947754 1.499900698661804 C 18.37844085693359 1.499900698661804 19.49979972839355 2.621260643005371 19.49979972839355 3.999600648880005 L 19.49979972839355 4.499600887298584 L 19.99979972839355 4.499600887298584 L 21.99960136413574 4.499600887298584 C 23.92978096008301 4.499600887298584 25.50010108947754 6.069920539855957 25.50010108947754 8.000101089477539 L 25.50010108947754 18.99990081787109 C 25.50010108947754 20.93008041381836 23.92978096008301 22.50040054321289 21.99960136413574 22.50040054321289 Z" stroke="none"/>
      <path d="M 21.99960136413574 22.00040054321289 C 23.65408134460449 22.00040054321289 25.00010108947754 20.65438079833984 25.00010108947754 18.99990081787109 L 25.00010108947754 8.000101089477539 C 25.00010108947754 6.345620632171631 23.65408134460449 4.999600887298584 21.99960136413574 4.999600887298584 L 19.99979972839355 4.999600887298584 L 18.99979972839355 4.999600887298584 L 18.99979972839355 3.999600648880005 C 18.99979972839355 2.896960735321045 18.10274124145508 1.999900698661804 17.00010108947754 1.999900698661804 L 9.999900817871094 1.999900698661804 C 8.897260665893555 1.999900698661804 8.000200271606445 2.896960735321045 8.000200271606445 3.999600648880005 L 8.000200271606445 4.999600887298584 L 7.000200748443604 4.999600887298584 L 3.999600648880005 4.999600887298584 C 2.345610618591309 4.999600887298584 1.000000596046448 6.345620632171631 1.000000596046448 8.000101089477539 L 1.000000596046448 18.99990081787109 C 1.000000596046448 20.65438079833984 2.345610618591309 22.00040054321289 3.999600648880005 22.00040054321289 L 21.99960136413574 22.00040054321289 M 21.99960136413574 23.00040054321289 L 3.999600648880005 23.00040054321289 C 1.791000485420227 23.00040054321289 5.447387820822769e-07 21.20940017700195 5.447387820822769e-07 18.99990081787109 L 5.447387820822769e-07 8.000101089477539 C 5.447387820822769e-07 5.790600776672363 1.791000485420227 3.999600648880005 3.999600648880005 3.999600648880005 L 7.000200748443604 3.999600648880005 C 7.000200748443604 2.342700719833374 8.343000411987305 0.9999006986618042 9.999900817871094 0.9999006986618042 L 17.00010108947754 0.9999006986618042 C 18.65700149536133 0.9999006986618042 19.99979972839355 2.342700719833374 19.99979972839355 3.999600648880005 L 21.99960136413574 3.999600648880005 C 24.2091007232666 3.999600648880005 26.00010108947754 5.790600776672363 26.00010108947754 8.000101089477539 L 26.00010108947754 18.99990081787109 C 26.00010108947754 21.20940017700195 24.2091007232666 23.00040054321289 21.99960136413574 23.00040054321289 Z" stroke="none" fill="#52bcff"/>
    </g>
    <g id="椭圆_11" data-name="椭圆 11" transform="translate(8 7)" fill="none" stroke="#52bcff" stroke-width="1">
      <circle cx="5.5" cy="5.5" r="5.5" stroke="none"/>
      <circle cx="5.5" cy="5.5" r="5" fill="none"/>
    </g>
    <g id="椭圆_12" data-name="椭圆 12" transform="translate(3 6)" fill="none" stroke="#52bcff" stroke-width="1">
      <circle cx="2" cy="2" r="2" stroke="none"/>
      <circle cx="2" cy="2" r="1.5" fill="none"/>
    </g>
  </g>
</svg>
