<svg xmlns="http://www.w3.org/2000/svg" width="22" height="22.5" viewBox="0 0 22 22.5">
  <g id="组_173" data-name="组 173" transform="translate(-931 -1973.5)">
    <rect id="矩形_86" data-name="矩形 86" width="22" height="22" transform="translate(931 1974)" fill="none"/>
    <g id="组_7" data-name="组 7" transform="translate(915.882 1353.75)">
      <path id="路径_8" data-name="路径 8" d="M201.139,226.441s-4.588,4.552-6.306,4.559c-1.753.008-6.458-4.559-6.458-4.559v-8.206c2.733.527,3.669-2.779,6.382-2.735,2.672.044,3.6,3.155,6.382,2.735Z" transform="translate(-168.257 404.75)" fill="none" stroke="#a0a0a0" stroke-miterlimit="10" stroke-width="1"/>
      <path id="路径_9" data-name="路径 9" d="M190.757,221s.726,5.043,2,5c1.346-.045.654-5,2-5s.654,4.955,2,5c1.274.043,2-5,2-5" transform="translate(-168.257 404.75)" fill="none" stroke="#a0a0a0" stroke-miterlimit="10" stroke-width="1"/>
    </g>
  </g>
</svg>
