<svg xmlns="http://www.w3.org/2000/svg" width="22" height="22" viewBox="0 0 22 22">
  <g id="组_171" data-name="组 171" transform="translate(-931 -1921)">
    <rect id="矩形_83" data-name="矩形 83" width="22" height="22" transform="translate(931 1921)" fill="none"/>
    <g id="组_5" data-name="组 5" transform="translate(746.743 1743.5)">
      <path id="路径_2" data-name="路径 2" d="M190.971,182.5a4.715,4.715,0,0,0-4.714,4.714V188.5h2.092a1.491,1.491,0,0,1,2.816,0h1.092v-6Z" fill="none" stroke="#a0a0a0" stroke-miterlimit="10" stroke-width="1"/>
      <path id="路径_3" data-name="路径 3" d="M202.352,179.5h-9.19a.9.9,0,0,0-.9.9v8.1h4.092a1.491,1.491,0,0,1,2.816,0h3.187a.9.9,0,0,0,.9-.9V180.4A.9.9,0,0,0,202.352,179.5Z" fill="none" stroke="#a0a0a0" stroke-miterlimit="10" stroke-width="1"/>
      <circle id="椭圆_3" data-name="椭圆 3" cx="1.5" cy="1.5" r="1.5" transform="translate(188.257 187.5)" fill="none" stroke="#a0a0a0" stroke-miterlimit="10" stroke-width="1"/>
      <circle id="椭圆_4" data-name="椭圆 4" cx="1.5" cy="1.5" r="1.5" transform="translate(196.257 187.5)" fill="none" stroke="#a0a0a0" stroke-miterlimit="10" stroke-width="1"/>
    </g>
  </g>
</svg>
