<svg xmlns="http://www.w3.org/2000/svg" xmlns:xlink="http://www.w3.org/1999/xlink" width="54.729" height="54.729" viewBox="0 0 54.729 54.729">
  <defs>
    <clipPath id="clip-path">
      <rect width="54.729" height="54.729" fill="none"/>
    </clipPath>
  </defs>
  <g id="icon拍摄按钮" clip-path="url(#clip-path)">
    <path id="Oval_2" data-name="Oval 2" d="M27.364,0A27.364,27.364,0,1,1,0,27.364,27.364,27.364,0,0,1,27.364,0Z" fill="#ffe0dc"/>
    <path id="Shape" d="M22.929,20.759H2.548A2.575,2.575,0,0,1,0,18.164V6.487A2.575,2.575,0,0,1,2.548,3.893H5.605a1.137,1.137,0,0,0,1.006-.74L7.4.738A1.137,1.137,0,0,1,8.408,0h8.663a1.13,1.13,0,0,1,1,.738l.789,2.415a1.138,1.138,0,0,0,1.008.74h3.057a2.575,2.575,0,0,1,2.548,2.595V18.163A2.575,2.575,0,0,1,22.929,20.759ZM12.739,5.189a6.488,6.488,0,0,0,0,12.974,6.488,6.488,0,0,0,0-12.974Zm9.3,1.294a.909.909,0,1,0,.894.909A.9.9,0,0,0,22.037,6.484Zm-9.3,9.084a3.893,3.893,0,1,1,3.821-3.892A3.861,3.861,0,0,1,12.739,15.567Z" transform="translate(14.626 16.041)" fill="#fe5944"/>
  </g>
</svg>
