<svg xmlns="http://www.w3.org/2000/svg" xmlns:xlink="http://www.w3.org/1999/xlink" width="68.295" height="77.908" viewBox="0 0 68.295 77.908">
  <defs>
    <clipPath id="clip-path">
      <path id="路径_93" data-name="路径 93" d="M398.473,332.022a3,3,0,0,0-2.994-2.808H383.948c-2.315-7.707-8.848-13.269-16.561-13.269s-14.246,5.562-16.56,13.269H339.3a3,3,0,0,0-2.994,2.808l-3.055,47.814a3,3,0,0,0,2.8,3.185c.064,0,.127.006.191.006h62.3a3,3,0,0,0,3-3c0-.064,0-.127-.006-.191Zm-31.086-14.387c5.761,0,10.706,4.762,12.894,11.579H354.494c2.188-6.817,7.133-11.579,12.893-11.579Z" fill="none"/>
    </clipPath>
    <radialGradient id="radial-gradient" cx="35.524" cy="61.99" fx="25.819302281182445" r="29.547" gradientTransform="matrix(1.745, 0, 0, -1.745, -26.466, 170.164)" gradientUnits="userSpaceOnUse">
      <stop offset="0.401" stop-color="#fff" stop-opacity="0"/>
      <stop offset="0.537" stop-color="#fff" stop-opacity="0.008"/>
      <stop offset="0.601" stop-color="#fff" stop-opacity="0.039"/>
      <stop offset="0.65" stop-color="#fff" stop-opacity="0.09"/>
      <stop offset="0.691" stop-color="#fff" stop-opacity="0.161"/>
      <stop offset="0.728" stop-color="#fff" stop-opacity="0.255"/>
      <stop offset="0.761" stop-color="#fff" stop-opacity="0.369"/>
      <stop offset="0.769" stop-color="#fff" stop-opacity="0.4"/>
    </radialGradient>
    <radialGradient id="radial-gradient-2" cx="61.956" cy="35.505" fx="69.64020759313826" fy="-8.018040443557936" r="106.188" gradientTransform="matrix(0, 0.573, 0.573, 0, 41.61, 0)" gradientUnits="userSpaceOnUse">
      <stop offset="0.401" stop-color="#fff" stop-opacity="0"/>
      <stop offset="0.523" stop-color="#fff" stop-opacity="0.008"/>
      <stop offset="0.58" stop-color="#fff" stop-opacity="0.039"/>
      <stop offset="0.624" stop-color="#fff" stop-opacity="0.09"/>
      <stop offset="0.661" stop-color="#fff" stop-opacity="0.161"/>
      <stop offset="0.694" stop-color="#fff" stop-opacity="0.255"/>
      <stop offset="0.723" stop-color="#fff" stop-opacity="0.369"/>
      <stop offset="0.73" stop-color="#fff" stop-opacity="0.4"/>
    </radialGradient>
  </defs>
  <g id="组_161" data-name="组 161" transform="translate(-333.24 -315.945)">
    <g id="组_145" data-name="组 145">
      <path id="路径_21" data-name="路径 21" d="M398.473,332.022a3,3,0,0,0-2.994-2.808H383.948c-2.315-7.707-8.848-13.269-16.561-13.269s-14.246,5.562-16.56,13.269H339.3a3,3,0,0,0-2.994,2.808l-3.055,47.814a3,3,0,0,0,2.8,3.185c.064,0,.127.006.191.006h62.3a3,3,0,0,0,3-3c0-.064,0-.127-.006-.191Zm-31.086-14.387c5.761,0,10.706,4.762,12.894,11.579H354.494c2.188-6.817,7.133-11.579,12.893-11.579Z" fill="#007ec5"/>
      <g id="组_144" data-name="组 144" opacity="0.78">
        <g id="组_175" data-name="组 175">
          <g id="组_174" data-name="组 174" clip-path="url(#clip-path)">
            <g id="组_143" data-name="组 143">
              <ellipse id="椭圆_5" data-name="椭圆 5" cx="35.524" cy="61.99" rx="35.524" ry="61.99" transform="translate(262.954 333.637) rotate(-30)" fill="url(#radial-gradient)"/>
              <ellipse id="椭圆_6" data-name="椭圆 6" cx="61.956" cy="35.505" rx="61.956" ry="35.505" transform="translate(328.359 376.506) rotate(-36.251)" fill="url(#radial-gradient-2)"/>
            </g>
          </g>
        </g>
      </g>
    </g>
    <g id="组_149" data-name="组 149">
      <g id="组_146" data-name="组 146" opacity="0.2">
        <path id="路径_23" data-name="路径 23" d="M353.395,345.659s-6.31,0-5.048,5.049c1.089,4.358,8.921.865,11.127-.211a.413.413,0,0,1,.6.338c.053,1.527,1.027,6.3,3.075,3.262a3.4,3.4,0,0,0,.343-1.655l.214-2.131c0-.561.169-.961.713-1.1l5.4-1.35a1.187,1.187,0,0,1,1.441.864,1.26,1.26,0,0,1,.026.136,14.335,14.335,0,0,1-.46,6.734.154.154,0,0,0,.249.173,21.988,21.988,0,0,0,5.09-8.143,2.042,2.042,0,0,1,1.682-1.163l5.209-.8c1.262,0,3.467-1.454-1.794-1.509l-3.142-.025a1.393,1.393,0,0,1-1.276-1.368l-.1-4.365a3.275,3.275,0,0,0-.942-2.307c-1.461-1.478-4.107-3.524-4.107,1.044a36.4,36.4,0,0,1-.358,6.345c-.093.646-.632.824-1.285.824l-5.722.3a.764.764,0,0,1-.764-.764h0l-.075-1.957c.139-.42-1.2-6.5-3.155,0l-.383,1.914a1.711,1.711,0,0,1-1.507,1.367Z" fill="#002e7e"/>
        <path id="路径_24" data-name="路径 24" d="M373.384,357.326c-.575.891-1.726,2.617-2.385,3.638a3.475,3.475,0,0,1-1.54,1.113c-2.272.238-7.322.031-5.336,3.776,0,0,.871,1.537,3.981.716a.3.3,0,0,1,.332.265.307.307,0,0,1-.032.171c-.389.981-1.206,6.616,3.548,8.12a20.307,20.307,0,0,0,10.352.2c2.376-.668,4.114-2.965,4.269-6.31a13.429,13.429,0,0,0-1.444-7.5c-.042-.08-.152-.069-.148.021.308,7.132-4.193,10.644-10.966,9.567a1.714,1.714,0,0,1-1.4-1.386c.011-.622-.359-3.6,2.505-3.711,1.262-.112,4.913.473,5.412-2.683.138-.869-.522-1.72-6.321-1.623a.52.52,0,0,1-.458-.445c0-.73.217-2.83.2-3.842a.3.3,0,0,0-.569-.087Z" fill="#002e7e"/>
        <path id="路径_25" data-name="路径 25" d="M351.4,368.525c-1.536,2.033-2.033,9.709,2.817,5.6l3.332-3.326a.252.252,0,0,1,.355.009.248.248,0,0,1,.067.143c.723,5.368,1.95,7.579,2.428,7.523.4.058,1.389-.467,1.251-2.414v-9.828a1.555,1.555,0,0,1,.255-.855c.853-1.3,3.58-5.505,4.111-7.1a8.726,8.726,0,0,0,.027-4.69.727.727,0,0,0-1.234-.362C363.6,354.127,352.8,366.668,351.4,368.525Z" fill="#002e7e"/>
      </g>
      <g id="组_148" data-name="组 148">
        <g id="组_147" data-name="组 147">
          <path id="路径_26" data-name="路径 26" d="M353.395,344.659s-6.31,0-5.048,5.049c1.089,4.358,8.921.865,11.127-.211a.413.413,0,0,1,.6.338c.053,1.527,1.027,6.3,3.075,3.262a3.4,3.4,0,0,0,.343-1.655l.214-2.131c0-.561.169-.961.713-1.1l5.4-1.35a1.187,1.187,0,0,1,1.441.864,1.26,1.26,0,0,1,.026.136,14.335,14.335,0,0,1-.46,6.734.154.154,0,0,0,.249.173,21.988,21.988,0,0,0,5.09-8.143,2.042,2.042,0,0,1,1.682-1.163l5.209-.8c1.262,0,3.467-1.454-1.794-1.509l-3.142-.025a1.393,1.393,0,0,1-1.276-1.368l-.1-4.365a3.275,3.275,0,0,0-.942-2.307c-1.461-1.478-4.107-3.524-4.107,1.044a36.4,36.4,0,0,1-.358,6.345c-.093.646-.632.824-1.285.824l-5.722.3a.764.764,0,0,1-.764-.764h0l-.075-1.957c.139-.42-1.2-6.5-3.155,0l-.383,1.914a1.711,1.711,0,0,1-1.507,1.367Z" fill="#fff"/>
          <path id="路径_27" data-name="路径 27" d="M373.384,356.326c-.575.891-1.726,2.617-2.385,3.638a3.475,3.475,0,0,1-1.54,1.113c-2.272.238-7.322.031-5.336,3.776,0,0,.871,1.537,3.981.716a.3.3,0,0,1,.332.265.307.307,0,0,1-.032.171c-.389.981-1.206,6.616,3.548,8.12a20.307,20.307,0,0,0,10.352.2c2.376-.668,4.114-2.965,4.269-6.31a13.429,13.429,0,0,0-1.444-7.5c-.042-.08-.152-.069-.148.021.308,7.132-4.193,10.644-10.966,9.567a1.714,1.714,0,0,1-1.4-1.386c.011-.622-.359-3.6,2.505-3.711,1.262-.112,4.913.473,5.412-2.683.138-.869-.522-1.72-6.321-1.623a.52.52,0,0,1-.458-.445c0-.73.217-2.83.2-3.842a.3.3,0,0,0-.569-.087Z" fill="#fff"/>
          <path id="路径_28" data-name="路径 28" d="M351.4,367.525c-1.536,2.033-2.033,9.709,2.817,5.6l3.332-3.326a.252.252,0,0,1,.355.009.248.248,0,0,1,.067.143c.723,5.368,1.95,7.579,2.428,7.523.4.058,1.389-.467,1.251-2.414v-9.828a1.555,1.555,0,0,1,.255-.855c.853-1.3,3.58-5.505,4.111-7.1a8.726,8.726,0,0,0,.027-4.69.727.727,0,0,0-1.234-.362C363.6,353.127,352.8,365.668,351.4,367.525Z" fill="#fff"/>
        </g>
      </g>
    </g>
    <path id="路径_29" data-name="路径 29" d="M367.387,352.5" fill="none" stroke="#030504" stroke-miterlimit="10" stroke-width="1"/>
    <path id="路径_30" data-name="路径 30" d="M367.387,367.464" fill="#fff"/>
    <path id="路径_31" data-name="路径 31" d="M367.387,369.87" fill="#fff"/>
    <g id="组_154" data-name="组 154">
      <g id="组_153" data-name="组 153">
        <g id="Yiqihua_Credit_Pay-2" data-name="Yiqihua Credit Pay-2">
          <g id="组_176" data-name="组 176">
            <path id="路径_94" data-name="路径 94" d="M335.5,392.144v-2.729l-2.25-3.613h.9l1.732,2.848h.026l1.732-2.848h.9l-2.25,3.613v2.729Z" fill="#007ec5"/>
            <path id="路径_95" data-name="路径 95" d="M339.088,386.282a.479.479,0,1,1,.479.479A.478.478,0,0,1,339.088,386.282Zm.1,1.292h.764v4.57h-.764Z" fill="#007ec5"/>
            <path id="路径_96" data-name="路径 96" d="M344.186,388.347h.017v-.773h.73v6.1h-.765v-2.29h-.018a1.619,1.619,0,0,1-1.463.844c-1.156,0-1.929-.932-1.929-2.364s.773-2.365,1.947-2.365A1.639,1.639,0,0,1,344.186,388.347Zm-.018,1.512c0-1.02-.545-1.692-1.327-1.692-.8,0-1.3.646-1.3,1.692s.5,1.691,1.3,1.691C343.623,391.55,344.168,390.878,344.168,389.859Z" fill="#007ec5"/>
            <path id="路径_97" data-name="路径 97" d="M345.869,386.282a.479.479,0,1,1,.479.479A.477.477,0,0,1,345.869,386.282Zm.1,1.292h.764v4.57h-.764Z" fill="#007ec5"/>
            <path id="路径_98" data-name="路径 98" d="M347.8,385.8h.764v2.5h.018a1.513,1.513,0,0,1,1.45-.809,1.543,1.543,0,0,1,1.609,1.7v2.953h-.765v-2.813a1.014,1.014,0,0,0-1.081-1.16,1.188,1.188,0,0,0-1.231,1.31v2.663H347.8Z" fill="#007ec5"/>
            <path id="路径_99" data-name="路径 99" d="M356.367,392.144h-.724V391.4h-.018a1.622,1.622,0,0,1-3.032-.862v-2.966h.764v2.83c0,.742.347,1.142,1.055,1.142a1.156,1.156,0,0,0,1.191-1.287v-2.685h.764Z" fill="#007ec5"/>
            <path id="路径_100" data-name="路径 100" d="M357.172,390.852c0-.782.6-1.274,1.656-1.336l1.31-.075v-.382c0-.558-.369-.892-1-.892a.96.96,0,0,0-1.055.725h-.738a1.614,1.614,0,0,1,1.81-1.4c1.073,0,1.749.581,1.749,1.49v3.16h-.724v-.787h-.018a1.666,1.666,0,0,1-1.468.866A1.373,1.373,0,0,1,357.172,390.852Zm2.966-.444v-.373l-1.222.074c-.615.04-.967.312-.967.743s.365.721.914.721A1.2,1.2,0,0,0,360.138,390.408Z" fill="#007ec5"/>
            <path id="路径_101" data-name="路径 101" d="M363.592,388.971c0-1.991,1.121-3.274,2.856-3.274a2.519,2.519,0,0,1,2.633,2.105h-.8a1.814,1.814,0,0,0-1.833-1.375c-1.239,0-2.043,1-2.043,2.544s.8,2.549,2.048,2.549a1.748,1.748,0,0,0,1.828-1.222h.8a2.456,2.456,0,0,1-2.633,1.951C364.7,392.249,363.592,390.98,363.592,388.971Z" fill="#007ec5"/>
            <path id="路径_102" data-name="路径 102" d="M369.894,387.574h.72v.747h.018a1.12,1.12,0,0,1,1.107-.827,2.078,2.078,0,0,1,.308.031v.743a1.5,1.5,0,0,0-.408-.044.968.968,0,0,0-.981,1.072v2.848h-.764Z" fill="#007ec5"/>
            <path id="路径_103" data-name="路径 103" d="M376.23,390.834a1.809,1.809,0,0,1-1.9,1.389,2.073,2.073,0,0,1-2.105-2.347,2.111,2.111,0,0,1,2.07-2.382,2.005,2.005,0,0,1,1.995,2.281v.291H373.01v.043a1.306,1.306,0,0,0,1.336,1.451,1.1,1.1,0,0,0,1.133-.726Zm-3.216-1.366H375.5a1.223,1.223,0,0,0-1.218-1.31A1.284,1.284,0,0,0,373.014,389.468Z" fill="#007ec5"/>
            <path id="路径_104" data-name="路径 104" d="M376.833,389.859c0-1.433.786-2.365,1.938-2.365a1.609,1.609,0,0,1,1.455.822h.017V385.8h.765v6.342h-.73v-.774h-.013a1.635,1.635,0,0,1-1.477.853C377.624,392.223,376.833,391.291,376.833,389.859Zm.782,0c0,1.037.51,1.691,1.319,1.691.786,0,1.313-.668,1.313-1.691s-.527-1.692-1.313-1.692C378.125,388.167,377.615,388.826,377.615,389.859Z" fill="#007ec5"/>
            <path id="路径_105" data-name="路径 105" d="M381.983,386.282a.479.479,0,1,1,.479.479A.477.477,0,0,1,381.983,386.282Zm.1,1.292h.765v4.57h-.765Z" fill="#007ec5"/>
            <path id="路径_106" data-name="路径 106" d="M384.888,386.47v1.1h.887v.629h-.887v2.714c0,.418.175.608.567.608a2.877,2.877,0,0,0,.316-.023v.642a2.818,2.818,0,0,1-.483.035c-.84,0-1.165-.343-1.165-1.222V388.2h-.681v-.629h.681v-1.1Z" fill="#007ec5"/>
            <path id="路径_107" data-name="路径 107" d="M390.816,385.8a2.039,2.039,0,0,1-.008,4.078h-1.464v2.264h-.791V385.8Zm-1.472,3.375h1.265a1.339,1.339,0,1,0,0-2.672h-1.265Z" fill="#007ec5"/>
            <path id="路径_108" data-name="路径 108" d="M393.053,390.852c0-.782.6-1.274,1.657-1.336l1.31-.075v-.382c0-.558-.37-.892-1-.892a.96.96,0,0,0-1.055.725h-.738a1.613,1.613,0,0,1,1.81-1.4c1.072,0,1.749.581,1.749,1.49v3.16h-.725v-.787h-.018a1.667,1.667,0,0,1-1.468.866A1.373,1.373,0,0,1,393.053,390.852Zm2.967-.444v-.373l-1.222.074c-.615.04-.967.312-.967.743s.364.721.914.721A1.2,1.2,0,0,0,396.02,390.408Z" fill="#007ec5"/>
            <path id="路径_109" data-name="路径 109" d="M397.808,393.828v-.643a1.582,1.582,0,0,0,.3.022c.427,0,.665-.206.84-.738l.106-.321-1.688-4.574h.818l1.265,3.8h.013l1.266-3.8h.8l-1.8,4.89c-.39,1.069-.768,1.389-1.594,1.389A2.073,2.073,0,0,1,397.808,393.828Z" fill="#007ec5"/>
          </g>
        </g>
      </g>
    </g>
    <path id="路径_80" data-name="路径 80" d="M367.387,352.5" fill="none" stroke="#030504" stroke-miterlimit="10" stroke-width="1"/>
    <path id="路径_81" data-name="路径 81" d="M367.387,367.464" fill="#fff"/>
    <path id="路径_82" data-name="路径 82" d="M367.387,369.87" fill="#fff"/>
  </g>
</svg>
