<svg xmlns="http://www.w3.org/2000/svg" width="75" height="74.569" viewBox="0 0 75 74.569">
  <path id="icon_芝麻信用" d="M37.5,74.57A37.532,37.532,0,0,1,2.948,51.794a37.1,37.1,0,0,1,8.039-40.869,37.594,37.594,0,0,1,53.025,0A37.3,37.3,0,0,1,37.5,74.57ZM26.549,26.677c-4.443,3.951-6.7,8.628-6.7,13.9a17.969,17.969,0,0,0,1.263,6.763A15.374,15.374,0,0,0,35.59,57.024c.19,0,.382,0,.571-.01A18.316,18.316,0,0,0,43.092,55.5a15.851,15.851,0,0,0,5.27-3.771,16.761,16.761,0,0,0,3.364-5.537,19.915,19.915,0,0,0,1.215-6.811,19.442,19.442,0,0,0-2.2-8.761,24.369,24.369,0,0,0-6.627-7.976,12.436,12.436,0,0,0-7.582-2.9,7.938,7.938,0,0,0-7.308,4.323c-.012.039-.029.089-.05.15C28.25,26.9,28.04,31.027,32.3,35.42l.315.3c.692.695,1.479,1.344,2.239,1.971,2.252,1.857,4.379,3.611,4.379,6.548a6.965,6.965,0,0,1-6.932,6.9,7.933,7.933,0,0,1-4.018-1.15,6.091,6.091,0,0,1-1.5-1.2,6.613,6.613,0,0,1-1.714-5.1c.3-2.481,2.118-4.915,5.417-7.234A12.6,12.6,0,0,1,26.549,26.677Z" fill="#28beaa"/>
</svg>
